<svg width="288px" height="81px" viewBox="0 0 288 81" xmlns="http://www.w3.org/2000/svg">
  <g fill-rule="nonzero" fill="none">
    <path d="M57.594 76.303c-.1-.092-.186-.2-.252-.32a2.262 2.262 0 0 1-.268-1.198c0-.495.126-1.246.441-1.422a2.007 2.007 0 0 1 1.734 0 47.22 47.22 0 0 0 2.347 1.47s.552-.383.63-.415l.647-.464a10.45 10.45 0 0 0 1.276-.926 3.126 3.126 0 0 0-1.576-.623 17.097 17.097 0 0 1-1.292-.352c-.835-.24-1.67-.495-2.52-.687-1.135-.24-2.427-.958-3.546-1.07-1.576-.16-.488.335-1.37 1.182-.311.207-.67.328-1.04.352a.442.442 0 0 0-.347.276.452.452 0 0 0 .063.443c.304.368.559.776.756 1.214.126.367.236 1.597-.236 1.853-.473.256-.883-.495-1.182-.687a18.613 18.613 0 0 0-4.601-1.821c-.52-.128-1.008.143-1.497 0a11.964 11.964 0 0 1-2.41-1.15 2.82 2.82 0 0 0-1.293-.288c-.346 0-1.04.176-.898.655.192.452.532.824.961 1.054l1.576.847a18.01 18.01 0 0 0 3.403 1.406l.316.08c.774.114 1.542.269 2.3.463 1.056.384 1.717 1.358 2.773 1.71l1.765.59a40.9 40.9 0 0 0 4.144-1.789c-.19-.191-.394-.16-.615-.24a1.05 1.05 0 0 1-.189-.095M25.483 2.86c-.006.532.179 1.049.52 1.454.63.575 1.685-.096 2.316-.32.95-.34 1.925-.606 2.915-.799.85-.191 1.701.32 2.568.16.81-.25 1.529-.74 2.064-1.406.495-.584.947-1.204 1.355-1.853C38.088 0 38.971 0 39.852 0c-.271.27-.52.564-.74.879-.63.926-.536 2.013-1.103 2.907-.977 1.598-2.836 1.598-4.396 1.934-2.38.399-4.727 1.262-7.106 1.805-.396.093-.785.21-1.166.351-.51.155-.936.512-1.182.99-.127.308-.217.63-.268.96-.41 2.332 2.143-.112 2.332.447.11.331.11.69 0 1.022-.126.384-.52.655-.693 1.023-.173.367-.756 1.198-.693 1.757.123 1.66.408 3.302.85 4.905 1.04 3.483 0 6.79-.866 10.017a5.732 5.732 0 0 0 1.103 5.847c.379.449.605 1.009.646 1.598-.075.564.1 1.132.476 1.554.376.422.917.654 1.478.635.409.05.799.204 1.134.447a31.88 31.88 0 0 1 3.151 2.508c.457.464.883.975 1.292 1.47l.646.815c.221.272.426.75.804.495.297-.228.521-.539.646-.894a3.398 3.398 0 0 0-.11-2.573c-.252-.639-.835-1.23-.867-1.853-.031-.623.489-1.038.504-1.597a1.02 1.02 0 0 0-.63-.831c-.315-.192-.646-.368-.977-.543-.85-.448-1.702-.88-2.552-1.342a23.22 23.22 0 0 1-2.931-1.838c-.52-.415-1.324-1.038-1.292-1.79 0-1.325 1.008-.319 1.765-.542 1.307-.384 1.37-1.726 1.985-2.876a45.868 45.868 0 0 0 3.56-7.62 4.53 4.53 0 0 0 .332-2.333c-.41-1.454-1.214-2.812-1.67-4.266-.127-.4-.237-.815-.347-1.214-.205-.751-.347-1.598-.536-2.269-.079-.383-.157-.75-.252-1.134-.094-.384.126-.735.536-.527.277.21.468.518.536.862.425 1.486.819 2.988 1.339 4.442.252.703.803 1.71 1.34 1.805.535.096 1.338-.607 1.575-1.597a38.56 38.56 0 0 1 1.355-5.097 1.304 1.304 0 0 1 1.055-.607c.331 0 .899.511.899.783 0 1.39-.646 3.435-.205 4.793.283.894 1.197 1.342 1.575 2.172.379.831.284 1.774.6 2.669.165.318.48.53.834.559.22 0 .552-.48.599-.767.394-2.429 1.749-6.39.945-8.771-.614-1.837-2.946-2.077-3.797-3.659-1.45-2.716 2.3-.974 3.34-1.118 1.797-.176 1.907-2.413 2.27-4.218a35.46 35.46 0 0 1 2.331.48c-.078 1.373-.157 2.747-.283 4.121 0 .512-.82.943-.914 1.47-.363 2.077-.63 4.186-.882 6.279-.142 1.198-.205 2.396-.268 3.61-.095 1.854-.205 3.723-.142 5.576 0 .4.662.943 1.119 1.07.456.128.819-.59.992-1.006.473-1.086.678-2.3 1.213-3.339a15.383 15.383 0 0 0 1.245-5.112c.047-.737.174-1.465.378-2.173.268-.751 1.009-1.214.883-2.109-.079-.511-.757-.879-.835-1.422-.268-1.917 1.197-3.802 1.764-5.687l1.97.862a4.22 4.22 0 0 0-.095.432 27.356 27.356 0 0 0-.709 5.495c.11 2.812.268 5.544-1.575 7.989a4.597 4.597 0 0 0-.646 1.965c-.174.958.63 1.31 1.166.479a93.246 93.246 0 0 0 2.032-3.435 27.06 27.06 0 0 0 .851-2.908c.252-.607.788-1.038 1.056-1.597a8.094 8.094 0 0 0 .33-3.994c-.094-1.598-.141-2.317.49-2.956.834.447 1.67.91 2.473 1.422a7.723 7.723 0 0 0 .22 2.844c.162.497.491.921.93 1.198 1.2.512 2.332 1.172 3.372 1.965.835.799 4.443 6.614 5.688 3.195a.178.178 0 0 1 0-.096 41.016 41.016 0 0 1 5.279 8.676c0-.16-.6-.368-.757-.464-.157-.096-.567-.32-.835-.495a4.957 4.957 0 0 0-1.213-.655 28.23 28.23 0 0 0-3.057-.687l-4.38-1.038c-.41 0-.898-.272-1.213-.128-.56.198-1.03.596-1.324 1.118-.583 1.901-1.008 3.866-1.576 5.8a2.235 2.235 0 0 0 .962 2.716c.882.686.882 2.252 2 2.588.59.069 1.141.326 1.576.735.315.54.584 1.106.804 1.693.583.99 1.465 2.572 2.836 1.917 1.89-.91 0-2.955.142-4.25.142-.814 1.229-1.086 2.064-.718.835.367.756 1.246 1.04 2.22.436 1.7.752 3.43.945 5.177.007.924.299 1.824.835 2.572.384.337.88.514 1.387.495.646 0 1.008 0 1.434-.511.425-.511.96-.99.914-1.438a12.444 12.444 0 0 0-1.308-4.378 21.375 21.375 0 0 1-1.34-2.156c-.236-.575-.204-1.246-.425-1.822a6.796 6.796 0 0 0-3.577-2.955c-1.323-.64-2.741-1.039-4.096-1.598-.394-.176-.851-.271-.946-.735a.79.79 0 0 1 .205-.635.766.766 0 0 1 .615-.244c.93.061 1.857.184 2.773.368 1.103.224 2.19.703 3.309.815a5.64 5.64 0 0 1 4.254 3.403c.22.735.52 1.454.756 2.188.22.81.367 1.64.441 2.477.227 1.77.342 3.552.347 5.336a41.074 41.074 0 0 1-1.576 11.024 6.565 6.565 0 0 0-4.16-1.598 16.909 16.909 0 0 1-3.812 0c-2.71-.384-5.42-.895-8.13-1.39a1.198 1.198 0 0 0-.985.09c-.301.172-.516.464-.591.805a16.083 16.083 0 0 0-1.812 4.01c-.205 1.597 1.575 3.051 2.473 4.17a6.107 6.107 0 0 0 2.569 1.965c1.575.32 2-2.908 2.741-3.755a5.488 5.488 0 0 1 2.222-1.15c1.71-.39 3.472-.492 5.215-.304.74 0 1.576.384 1.67 1.374.095.99-1.292.927-2.19 1.07-1.575.256-5.152.176-5.64 1.598a9.487 9.487 0 0 0-.316 3.883c.095.894.804 2.652-.677 2.7-1.024 0-2.3-1.47-3.151-1.965a20.263 20.263 0 0 1-3.435-2.141c-1.245-1.135-1.734-1.598-3.31-.623-1.102.719-5.798 3.722-5.435 5.304.362 1.581 7.72 1.597 9.139 1.597 1.78 0 3.545.144 5.294.304a13.23 13.23 0 0 1 3.97.75c3.703 3.5.126 4.027-3.15 2.078-2.664-.64-5.295-1.007-8.037-1.454-.96-.144-1.89-.56-2.883-.767a13.327 13.327 0 0 0-2.884-.367c-2.19 0-1.213 3.099-3.608 2.811-1.245-.143-1.97-1.597-3.025-2.188-1.686-.879-3.719-.256-5.436-1.007-.898-.383-1.938-2.268-3.057-1.342-.74.607-.378 1.837-.441 2.668-.063.83-1.008 2.333.142 3.195.551.4 1.45.272 2.08.576.977.495 1.701 2.029 2.253 3.003.378.64.236.959.425 1.598.252.958 1.103 1.214 1.97 1.597 1.107.467 2.186 1 3.23 1.598-.882.17-1.78.314-2.694.431-.126-.127-.237-.255-.363-.367a4.811 4.811 0 0 0-1.97-1.23 3.687 3.687 0 0 0-1.102-.16 2.502 2.502 0 0 0-.694 0c-.535.176.221.927.41 1.07.205.154.38.344.52.56 0 0 .19.399.284.399h-2.71a5.042 5.042 0 0 0-1.261-.895 7.46 7.46 0 0 0-1.182-.271 1.321 1.321 0 0 0-.662 0 4.902 4.902 0 0 1-1.575.287 1.352 1.352 0 0 0-.772.464l-.835-.144a39.905 39.905 0 0 1-5.121-1.246c-.82-.256-1.576-.544-2.442-.863l-.426-.048c-.126 0-.394-.096-.236-.256.157-.16 1.575-.479 1.859-.67.284-.192-.315-.608-.488-.751l-.993-.88a17.18 17.18 0 0 0-1.97-1.421 4.67 4.67 0 0 0-2.379-.431c-.362 0-.977.495-1.008.814-.032.32.394.895.756 1.103.835.463 2.096.527 2.584 1.198.284.4.22.511-.094.367a39.884 39.884 0 0 1-8.399-5.368c.378.114.762.204 1.15.272a5.456 5.456 0 0 0 2.096 0 4.356 4.356 0 0 0 1.576-.783c.11 0 0-.687-.126-.83-.725-.624-1.576-1.167-2.285-1.742-1.576-1.214-3.261-2.397-4.853-3.627a2.658 2.658 0 0 1-.725-1.182 19.167 19.167 0 0 0-1.103-3.898c-.756-1.087-2.552-1.087-3.608-1.646a3.818 3.818 0 0 1-2.348-3.467c0-.974.11-.894.899-.367.787.527 1.024.943 1.575 1.374 1.985 1.358 4.963 1.837 5.673 4.33.22.798.33 2.188 1.575 1.917 1.245-.272.851-2.477.504-3.371-.488-1.342-2.048-1.598-2.536-2.668-.489-1.07.504-2.221-.205-3.403a6.974 6.974 0 0 0-2.316-1.981 12.264 12.264 0 0 0-7.438-1.774c-.661 0-1.024.256-1.15.671A41.074 41.074 0 0 1 3.14 24.86c.236 1.055.457 2.125.662 3.195a8.603 8.603 0 0 1-.473 2.413c-.173 1.118-.331 2.237-.504 3.355-.08.639-.331 1.23-.441 1.87-.11.638.346 1.373.945.766.347-.336.268-1.598.646-1.741.408-.127.743-.426.918-.82a1.52 1.52 0 0 0-.004-1.241c-.536-1.598.173-3.196.268-4.793.11-1.854.457-3.69.693-5.528.055-.435.087-.872.095-1.31a6.833 6.833 0 0 0-.142-1.502 40.238 40.238 0 0 1 3.64-5.144c.458.38 1.117.38 1.575 0 .552-.512.284-1.486.284-2.205 0-.192.693-.703.82-.83l.897-.864a35.547 35.547 0 0 1 1.875-1.597c.646-.511 1.292-1.023 1.954-1.502a4.183 4.183 0 0 1 1.576-.767 7 7 0 0 0 .803-.128c.757-.1 1.499-.299 2.206-.59a2.53 2.53 0 0 0 1.087-1.87 44.546 44.546 0 0 1 2.947-1.294m50.231 44.302c0 .591 1.182 0 1.576-.08a4.135 4.135 0 0 0 1.576-1.214 2.794 2.794 0 0 0 .41-1.597c-.127-.56-.63-.464-1.104-.48-1.008 0-.945.863-.882 1.598a.788.788 0 0 1-.22.543c-.331.304-1.182.703-1.245 1.214M13.697 13.021c0 .207.709.607 1.134.639a6.038 6.038 0 0 0 3.467-.527 4.848 4.848 0 0 0 1.339-1.07c.341-.41.622-.868.835-1.359 0-.144.284-.543.126-.687-.158-.144-.772.112-.961.176-.71.224-1.465.256-2.19.431-1.056.272-2.033.767-3.152 1.07-.33.097-.63.863-.646 1.327m3.388 3.051c0-.527-.63-.208-.867-.176-.63.08-1.229-.255-1.875 0a1.746 1.746 0 0 0-.787.512c-.19.207-.71.99-.237 1.118.174 0 .489-.144.678-.16.189-.016.614 0 .914 0 .382-.02.754-.129 1.087-.32.252-.159.882-.479 1.056-.83a.308.308 0 0 0 0-.112M9.49 33.678c-.531.732-1.01 1.5-1.434 2.3-.19.464-.095 1.598.142 1.598.98.333 1.995.553 3.025.655a.884.884 0 0 0 .709-.543c.347-1.71.599-3.467.945-5.176.158-.703.426-2.684 1.34-2.748.335 1.153.52 2.345.551 3.547v3.195c.123.459.477.818.93.943 2.474.271 3.151-2.205 4.033-3.739 1.75-2.876-1.67-4.425-3.923-5.656-1.922-1.022-2.946-.543-3.955 1.422-.74 1.422-1.575 2.796-2.426 4.186m-1.15-12.59a1.61 1.61 0 0 0 .535 1.455c.425.346.952.537 1.497.543.662 0 .489-.847.473-1.326 0-.735-.079-1.47-.126-2.205a12.212 12.212 0 0 0-.095-1.693.845.845 0 0 0-.536-.703c-.52-.208-.661 0-1.055.32a2.285 2.285 0 0 0-.788 1.133c-.173.783.189 1.598.094 2.477m-1.402 9.713c0 .544-.189 1.981.835 1.886.41 0 .583-.464.725-.8.057-.193.1-.39.126-.59.106-.399.276-.777.504-1.119a6.421 6.421 0 0 0 1.103-2.125 4.66 4.66 0 0 0-.283-2.747c-.205-.432-1.12-.72-1.576-.815-.457-.096-.441-.096-.599.112-.189.436-.31.9-.362 1.374A18.487 18.487 0 0 0 7 28.757a15.47 15.47 0 0 0 0 2.093m40.258 32.017c-.158-.847-.583-.975-1.355-1.326-1.119-.511-2.836-1.598-2.9-2.972 0-.767.206-.815.852-.59.353.127.688.304.992.526.237.176.489.528.804.544.583 0 0-1.374 0-1.598a2.38 2.38 0 0 0-1.087-1.598c-.71-.415-1.891-.463-1.75-1.597.19-1.598 2.128-.496 3.152-.56.599 0 .205-3.85 0-4.25-.205-.399-.693-.463-1.213-.558-1.087-.224-4.475-1.95-5.373-.735-.363 1.837.425 3.1.725 4.793.215 1.716.273 3.449.173 5.176a4.059 4.059 0 0 0 1.938 3.882 10.994 10.994 0 0 0 3.923 2.3c.867.097 1.324-.447 1.15-1.39m10.683-15.416c-.417-.294-.812-.62-1.181-.975-1.009-1.07-2.033-2.987-3.577-3.195-1.544-.208-2.316 1.102-3.151 2.077-.835.974-2.805 2.332-2.805 4.026.195 1.557.57 3.085 1.119 4.553.491 2.297.692 4.649.598 6.998 0 1.246-.787 3.195 1.135 3.003a3.543 3.543 0 0 0 2.82-3.067c.142-1.438.41-2.828 2.033-3.275.977-.256 2.757.111 3.01-1.326.252-1.438-1.12-1.822-2.301-1.774-.678 0-3.687.432-2.962-1.086a4.502 4.502 0 0 1 2.08-1.678c2.269-.815 6.665-1.597 3.23-4.33m9.265-3.93a27.244 27.244 0 0 1-4.003-1.805c-.898-.447-1.418-.255-1.575.735-.11.623-.205 1.262-.3 1.885-.094.623-.41 1.47.126 1.822.395.116.803.175 1.214.175l1.181.176c2.443.352 4.885.735 7.343 1.055 1.497.207 2.237-.592 1.875-1.902a3.463 3.463 0 0 0-3.151-2.013 6.84 6.84 0 0 1-2.679-.127m-5.09-10.944a.717.717 0 0 0-.681-.117.731.731 0 0 0-.469.516c0 .176.237.527.3.703.257 1.01.457 2.034.599 3.068.13.742.433 1.443.882 2.045.662.846 2.001 1.166 2.868 1.597.598.352 2.111 1.502 2.852 1.278 1.213-.383.598-1.917-.174-2.636-.472-.447-1.276-.495-1.796-.942a7.986 7.986 0 0 1-.945-1.326l-.205-.24c-.851-.863-1.954-1.31-2.6-2.38-.284-.48-.315-1.135-.693-1.598m-2.3-16.248c2.016.303 4.017.687 6.302 1.102-.158-.351-.205-.703-.41-.862-1.276-.975-2.537-1.982-3.892-2.828-2.174-1.358-2.3-1.262-2.883 1.246-.19.815 0 1.214.898 1.342M53.167 31.52a23.14 23.14 0 0 0-1.734 5.528c-.141 1.742-.44 2.94 1.025 4.202.898.767 2.064.942 2.993 1.598.662.463.977 1.405 1.576 1.805 2.253 1.374 2.41-2.429 2.868-3.834.268-.847.189-1.279-.725-1.742a28.998 28.998 0 0 1-2.663-1.917c-.63-.415-1.229-.783-.583-1.598.646-.814 2.285.448 2.49-1.294.078-.86.078-1.727 0-2.588a3.878 3.878 0 0 0-.505-2.396 6.139 6.139 0 0 0-1.67-1.119c-.63-.367-1.434-.815-.788-1.71.646-.894 1.292-1.341 2.348-.606.473.335 1.434.75 1.576.559.53-.57.895-1.278 1.055-2.045.268-1.023.221-2.14.473-3.195.252-1.055.095-1.694-1.182-1.838-.41 0-.835 0-1.244-.111-1.686-.304-2.159 0-2.79 1.597-.346.91-.882 1.758-1.15 2.684-.378 1.198-1.102 2.636-.74 3.61.662 1.79-.236 2.988-.74 4.41m-5.641-3.61a2.711 2.711 0 0 0-1.15.575c-.435.31-.796.713-1.056 1.182a10.245 10.245 0 0 0-1.497 4.793c0 1.853.583 3.499.504 5.352 0 .655-.394 6.934 0 7.03 1.37.303 1.686.271 2.174-1.055.474-2.013.602-4.094.379-6.15a2.298 2.298 0 0 1 .126-1.087.66.66 0 0 1 .488-.272c.14-.04.286-.04.425 0 .142.08.142.288.158.448.047.27.047.545 0 .814-.062.664-.083 1.331-.063 1.997-.05.462.099.922.41 1.263.381.206.815.29 1.244.24.583 0 .678-1.199.71-1.678.031-.48 0-1.374 0-2.045.157-1.422.393-2.844.661-4.266.38-1.386.644-2.802.788-4.234 0-1.597.772-3.195.945-4.793a9.569 9.569 0 0 0 .253-2.492 1.681 1.681 0 0 0-1.042-1.036 1.65 1.65 0 0 0-1.448.19c-.41.287-.362.862-.41 1.31a41.836 41.836 0 0 0-.567 5.064v1.342c.09 1.36-.01 2.727-.3 4.058a2.39 2.39 0 0 1-.724 1.342.999.999 0 0 1-.599.192.777.777 0 0 1-.425 0c-.173-.176 0-.607 0-.815.236-1.598 0-3.1.11-4.65a12.05 12.05 0 0 0 .11-2.38c0-.143-.173-.207-.283-.207m-13.015 2.7a10.629 10.629 0 0 0 1.906-2.205c.741-1.31 1.277-2.716 1.907-4.074a39.589 39.589 0 0 0 2.49-5.065c.173-.623 0-1.9-.646-2.204-.646-.304-1.214.223-1.576.639a12.625 12.625 0 0 0-1.576 3.499 11.03 11.03 0 0 1-2.111 4.121 4.465 4.465 0 0 0-1.324 4.793c.095.288.898.623.993.528m2.93 5.384c1.277 1.022 1.088 2.492 1.277 3.978.245 1.631.64 3.236 1.182 4.793.188.435.508.8.914 1.038.33.256.819.687 1.276.623.457-.064.583-.623.614-1.038 0-1.023-.236-2.03-.22-3.068 0-1.805.126-3.658 0-5.464a34.932 34.932 0 0 1-.71-4.17c.111-1.597 2.018-3.418 2.963-4.553 1.182-1.438 2.001-3.1.646-4.793-.93-1.134-1.718-2.348-2.679-.99a29.292 29.292 0 0 1-3.718 4.793 32.914 32.914 0 0 0-2.962 4.026c-.505.623-1.576.91-1.844 1.773-.52 1.917 2.285 2.253 3.246 3.02m-7.154 7.11c.113.525.182 1.06.205 1.597 0 1.949 0 3.978.095 5.911a23.993 23.993 0 0 0 1.056 4.138c.33 1.597.33 3.1.787 4.585.128.585.386 1.131.757 1.598 1.055 1.278 2.93.735 4.175 1.821a21.76 21.76 0 0 0 2.726 2.093c.3.176 2.946 1.502 3.151.655.237-1.15-1.575-1.79-2.221-2.413-.646-.623-1.466-1.917-2.348-2.652a13.723 13.723 0 0 0-2.3-1.23 2.015 2.015 0 0 1-1.072-1.07 3.418 3.418 0 0 1 0-.799c0-.288-.11-.415.205-.4.28.044.55.147.788.304a7.02 7.02 0 0 0 1.197.495c.441.112.441-.223.52-.559a5.003 5.003 0 0 0 0-2.46 5.457 5.457 0 0 0-1.292-2.03 2.288 2.288 0 0 0-.63-.478 4.231 4.231 0 0 1-2.033-1.598c-.094-.208-.268-2.045 0-2.013 1.04.144 3.152 2.78 3.152.24 0-1.358-1.844-2.365-2.695-3.196-.85-.83-2.048-2.172-3.151-3.195-.173-.16-.599-.591-.867-.48-.268.113-.252 1.023-.205 1.31m2.931 28.87c1.213.655 1.576-1.294 1.481-2.109-.142-1.965-.11-3.962-.283-5.927 0-.799-.694-1.07-1.45-.687a5.384 5.384 0 0 0-1.576 5.895c.552.879.804 2.269 1.78 2.812m-4.364-.958a1.799 1.799 0 0 1-.535-.64 41.366 41.366 0 0 1-2.553-4.17c-.593-.979-1-2.063-1.197-3.195 0-.51.425-.846.236-1.406-.33-.958-1.465-.878-2.19-1.246-1.576-.862-.914-2.716-1.97-4.042-1.055-1.326-2.962-2.3-3.923-3.914a23.888 23.888 0 0 1-2.584-5.208 14.698 14.698 0 0 1-.788-3.835 3.761 3.761 0 0 0-1.686-2.747 15.889 15.889 0 0 0-6.76-2.253c-1.229-.224-2.08.56-2.867 1.598-1.198 1.501-.914 3.083-.74 4.792.11.927.393 1.454 1.402 1.518a9.66 9.66 0 0 1 2.52.4c2.2.78 4.288 1.855 6.209 3.195a19.25 19.25 0 0 1 2.379 1.597c1.166 1.103.394 1.95.646 3.196.252 1.246 1.576 2.316 2.206 3.61.82 1.79.441 3.883 1.04 5.72a8.264 8.264 0 0 0 2.915 3.882c1.134.927 2.174 1.95 3.261 2.924.74.67 1.182 1.757 1.97 2.316.504.368 1.166.144 1.67.432.504.287.85 1.054 1.292 1.597a10.18 10.18 0 0 0 4.05 2.876 3.239 3.239 0 0 0 2.363-.383c.347-.176.709-.352 1.04-.543.33-.192.772-.544 1.197-.288.408.26.848.464 1.308.607.176.08.376.08.552 0 .189 0 .378-.192.583-.128.204.064.535.607.819.224.284-.384 0-.671 0-.91a2.77 2.77 0 0 0-.693-1.151 2.224 2.224 0 0 0-2.049-.91c-1.103.223-1.055 1.325-1.812 1.964-.756.64-2.473-.16-3.15-.894-1.324-1.598-2.097-3.515-4.035-4.474m-6.255-36.585c-1.749 2.14-4.301 2.907-6.586 4.105-1.576.831-2.017 1.406-1.655 3.196.166 1.052.398 2.093.694 3.115.37.86.807 1.688 1.308 2.476a21.545 21.545 0 0 0 2.6 3.5 22.042 22.042 0 0 1 1.859 2.172c.693 1.166 2.206 2.189 2.536 3.483.126.543 0 2.253 1.04 2.109.725 0 .725-1.374.678-1.901-.11-.863 0-1.806 0-2.637-.142-1.23-1.166-1.869-1.67-2.875a12.584 12.584 0 0 1-.725-4.074 18.134 18.134 0 0 0-1.087-4.65c-.252-.654-.378-.958.173-1.437a1.28 1.28 0 0 1 1.273-.382c.461.12.82.488.933.957a21.03 21.03 0 0 1 1.103 6.263c-.126 1.485-1.024 2.588.693 3.45 1.009.512 1.23.464 1.402 1.598.394 2.556-.567 4.92-.33 7.413a11.4 11.4 0 0 0 1.008 3.643c.378.75.457.75.961 0a8.071 8.071 0 0 0 1.119-3.946v-1.598a21.668 21.668 0 0 0-.378-5.144 6.13 6.13 0 0 0-.961-2.237c-.615-.863-1.308-1.598-.962-2.764.388-1.519.683-3.061.883-4.617a6.63 6.63 0 0 1 .157-.767c.3-1.118-.268-1.502-1.134-1.965-1.182-.64-1.23-1.118-1.576-2.412-.346-1.295-2.064-5.816-3.435-4.138m.694-14.826c-.2-1.362-.474-2.711-.82-4.042-.236-.815-.803-1.422-1.717-.496a14.838 14.838 0 0 1-2.001 1.742 57.4 57.4 0 0 1-2.647 1.693c-.511.257-1.006.545-1.481.863a1.347 1.347 0 0 0-.662 1.31c.1.907.136 1.82.11 2.732-.189 1.598 0 1.773 1.465 2.269 1.334.42 2.614.999 3.813 1.725a4.326 4.326 0 0 1 1.371 1.885c.331.72.804.99 1.387.56a1.945 1.945 0 0 0 .914-2.381 1.732 1.732 0 0 1 0-.943 15.85 15.85 0 0 0 .85-3.323 17.993 17.993 0 0 0-.582-3.594" fill="#4EC6F2"/>
    <path d="M105.775 45.866c.104-1.901.161-6.786.172-14.654 0-4.207 0-7.09-.172-8.635-4.813.205-7.547.315-8.172.315a1.956 1.956 0 0 1-1.234-.3 1.347 1.347 0 0 1-.36-1.087A6.586 6.586 0 0 1 96.589 19c3.299.718 6.672 1.03 10.046.93h12.75c.435-.04.873.058 1.25.283.269.294.4.69.359 1.088a4.962 4.962 0 0 1-.844 2.741 22.59 22.59 0 0 0-8.843-1.465h-.735c-.11 1.576-.172 4.507-.172 8.887 0 7.705 0 12.496.172 14.402h2.906c.16.38.245.786.25 1.198.022.258-.05.516-.203.725a.978.978 0 0 1-.718.205h-9.937c-.17-.41-.26-.849-.266-1.293a.808.808 0 0 1 .203-.63c.21-.149.463-.22.719-.205h2.25zM124.94 20.005h8.722c.164.37.25.771.254 1.176a.762.762 0 0 1-.207.722.785.785 0 0 1-.73.204h-1.462c-.095 1.904-.143 5.146-.143 9.728h12.28c0-4.582 0-7.845-.159-9.728h-2.176a3.678 3.678 0 0 1-.254-1.286.794.794 0 0 1 .206-.628c.208-.145.462-.212.715-.188h8.737c.153.374.233.773.239 1.176a.98.98 0 0 1-.207.722.978.978 0 0 1-.715.204h-1.652c-.095 1.899-.159 5.02-.159 9.414 0 7.672 0 12.442.175 14.34h2.351c.151.38.232.784.239 1.192a.98.98 0 0 1-.207.722.978.978 0 0 1-.715.204h-8.753a3.678 3.678 0 0 1-.254-1.286.794.794 0 0 1 .206-.628c.206-.15.46-.223.715-.204h1.478c.095-1.569.158-5.397.158-11.36h-12.248c0 5.947 0 9.744.16 11.36h2.128c.163.377.25.782.254 1.192a.762.762 0 0 1-.207.722.785.785 0 0 1-.73.204h-8.706a3.725 3.725 0 0 1-.27-1.286.794.794 0 0 1 .223-.628c.205-.15.46-.223.715-.204h1.684c.105-1.893.158-6.757.158-14.591 0-4.19 0-7.233-.158-9.132h-2.352a3.725 3.725 0 0 1-.27-1.286.794.794 0 0 1 .223-.628c.208-.145.461-.212.715-.188M155.928 20.02h17.5a2.784 2.784 0 0 1 1.567.33c.333.347.489.827.423 1.303a5.062 5.062 0 0 1-.768 2.575 29.323 29.323 0 0 0-10.638-1.57h-1.77c-.094 1.57-.141 4.615-.126 9.199h10.686c.176.542.265 1.11.266 1.68.035.273-.038.549-.204.769-.237.152-.519.218-.799.188h-9.964c0 5.903.047 9.519.14 10.848h2.852a29.26 29.26 0 0 0 10.247-1.445c.424.707.652 1.515.658 2.34a1.571 1.571 0 0 1-.596 1.318 4.598 4.598 0 0 1-2.412.424h-17.72a3.79 3.79 0 0 1-.267-1.303.802.802 0 0 1 .22-.612c.205-.145.455-.212.705-.189h1.566c.105-1.915.157-6.792.157-14.63 0-4.192 0-7.237-.157-9.137h-2.224a3.774 3.774 0 0 1-.267-1.287.802.802 0 0 1 .22-.628c.205-.145.455-.212.705-.188M197.696 45.314h2.953c.162.384.248.796.253 1.214.022.262-.051.523-.205.735a.987.987 0 0 1-.727.207h-9.682a3.58 3.58 0 0 1-.285-1.31.82.82 0 0 1 .222-.639c.205-.15.457-.224.71-.207h1.943c.116-1.928.174-6.88.174-14.857 0-4.265 0-7.364-.174-9.297h-2.385a3.824 3.824 0 0 1-.253-1.31.82.82 0 0 1 .221-.64 1.05 1.05 0 0 1 .711-.207h8.877c4.202 0 7.171.591 8.94 1.757a6.126 6.126 0 0 1 2.67 5.528c0 3.85-2.29 6.485-6.84 7.875a6.318 6.318 0 0 1 3.16 2.22 25.654 25.654 0 0 1 2.51 4.697 13.136 13.136 0 0 0 2.117 3.69c.63.477 1.413.7 2.196.623.3 1.007.252 1.678-.095 2.045a4.256 4.256 0 0 1-2.654.527 6.882 6.882 0 0 1-3.522-.655c-.727-.43-1.469-1.948-2.243-4.584a16.739 16.739 0 0 0-2.464-5.56 4.54 4.54 0 0 0-3.743-1.597c-.852 0-1.702.063-2.543.192 0 4.803.052 7.998.158 9.585v-.032zm-.158-12.429h1.658a9.578 9.578 0 0 0 5.434-1.262 4.346 4.346 0 0 0 1.848-3.802 5.32 5.32 0 0 0-1.611-4.313 7.254 7.254 0 0 0-4.739-1.39 12.498 12.498 0 0 0-2.4.208c-.111 1.198-.159 4.01-.159 8.45l-.031 2.11zM218.927 20.02H236.4a2.714 2.714 0 0 1 1.564.33c.297.204.438.644.438 1.303a5.1 5.1 0 0 1-.782 2.575 29.081 29.081 0 0 0-10.606-1.57h-1.784c-.094 1.57-.14 4.615-.125 9.2h10.638c.176.542.265 1.108.266 1.679.027.273-.045.546-.204.77a1.232 1.232 0 0 1-.797.188h-9.903c0 5.902.047 9.518.14 10.847h2.864c3.468.13 6.932-.36 10.23-1.444.425.707.652 1.514.658 2.34a1.572 1.572 0 0 1-.595 1.318 4.679 4.679 0 0 1-2.425.424H218.27a3.795 3.795 0 0 1-.266-1.303.755.755 0 0 1 .219-.613c.205-.145.454-.212.704-.188h1.564c.094-1.915.141-6.792.141-14.631 0-4.186-.047-7.232-.14-9.137h-2.16a3.78 3.78 0 0 1-.266-1.287.755.755 0 0 1 .22-.628c.204-.145.454-.212.703-.188M243.927 20.02h17.501a2.785 2.785 0 0 1 1.567.33c.333.347.489.827.423 1.303a5.22 5.22 0 0 1-.768 2.575 29.327 29.327 0 0 0-10.639-1.57h-1.786c-.094 1.57-.125 4.615-.11 9.199h10.686c.176.542.266 1.11.267 1.68.035.273-.038.549-.204.769-.237.152-.52.218-.8.188h-9.98c0 5.903.047 9.519.141 10.848h2.868a29.31 29.31 0 0 0 10.247-1.445c.424.707.652 1.515.658 2.34a1.571 1.571 0 0 1-.596 1.318 4.599 4.599 0 0 1-2.413.424h-17.72a3.79 3.79 0 0 1-.267-1.303.802.802 0 0 1 .22-.612c.205-.145.455-.212.705-.189h1.566c.094-1.915.157-6.797.157-14.63 0-4.192 0-7.237-.157-9.137h-2.162a3.774 3.774 0 0 1-.266-1.287.802.802 0 0 1 .22-.628c.204-.145.454-.212.704-.188M268.03 20.01h17.918a2.873 2.873 0 0 1 1.604.33c.34.347.5.828.433 1.305a4.984 4.984 0 0 1-.786 2.576 30.658 30.658 0 0 0-10.892-1.57h-1.828c-.086 1.539-.129 4.812-.129 9.819h10.33c.18.543.273 1.11.273 1.68.04.275-.035.552-.208.77a1.288 1.288 0 0 1-.818.19h-9.625c0 5.613.043 9.2.128 10.762h3.385c.157.38.244.784.257 1.194a.976.976 0 0 1-.225.722.96.96 0 0 1-.722.205h-9.849a3.704 3.704 0 0 1-.273-1.289.791.791 0 0 1 .225-.628 1.09 1.09 0 0 1 .722-.204h1.604c.096-1.896.144-6.767.144-14.612 0-4.19-.048-7.238-.144-9.144h-2.23a3.704 3.704 0 0 1-.272-1.288.791.791 0 0 1 .224-.629c.21-.145.466-.212.722-.188M107.786 70.006h1.07a1.33 1.33 0 0 1 0 .43c.03.077.03.163 0 .24a.319.319 0 0 1-.248.08h-3.488a1.227 1.227 0 0 1-.099-.463.264.264 0 0 1 0-.208.387.387 0 0 1 .264-.08h.674v-5.12-3.19h-.855a1.227 1.227 0 0 1-.1-.447.282.282 0 0 1 .083-.223.373.373 0 0 1 .263 0h3.193a6.237 6.237 0 0 1 3.29.606 2.069 2.069 0 0 1 .955 1.898c0 1.34-.823 2.233-2.468 2.728.457.132.86.4 1.151.766.365.498.674 1.033.922 1.595.181.465.443.896.773 1.276.228.162.51.236.79.207.099.351 0 .59 0 .702 0 .112-.444.192-.954.192a2.74 2.74 0 0 1-1.267-.224c-.264-.143-.527-.686-.807-1.595a5.628 5.628 0 0 0-.888-1.914 1.67 1.67 0 0 0-1.35-.558 5.99 5.99 0 0 0-.92 0c-.034 1.643-.017 2.743.016 3.302zm0-4.307h.625a3.612 3.612 0 0 0 1.958-.431 1.47 1.47 0 0 0 .675-1.308 1.774 1.774 0 0 0-.61-1.5 2.692 2.692 0 0 0-1.645-.478 4.446 4.446 0 0 0-.855 0v2.92l-.148.797zM118.395 61.046h5.794a.822.822 0 0 1 .524.114c.112.126.167.3.15.474a1.93 1.93 0 0 1-.27.93 8.521 8.521 0 0 0-3.503-.57h-.599v3.265h3.504c.061.195.091.399.09.604.03.09.03.188 0 .278a.44.44 0 0 1-.255 0h-3.383v3.903h.958a8.97 8.97 0 0 0 3.383-.523c.133.26.205.552.21.85a.543.543 0 0 1-.195.473 1.388 1.388 0 0 1-.793.147h-5.824a1.392 1.392 0 0 1-.09-.473.301.301 0 0 1 0-.213.29.29 0 0 1 .225 0h.509v-5.258-3.266h-.719a1.39 1.39 0 0 1-.09-.457.319.319 0 0 1 0-.23.295.295 0 0 1 .374-.048zM134.859 61.01a9.068 9.068 0 0 1 2.224.172.73.73 0 0 1 .621.703c0 .321-.15.625-.409.83a7.122 7.122 0 0 0-2.878-.673 1.976 1.976 0 0 0-1.324.36 1.512 1.512 0 0 0 0 2.032 5.28 5.28 0 0 0 1.75.767 7.52 7.52 0 0 1 2.321 1.016c.564.45.868 1.13.818 1.83a2.42 2.42 0 0 1-.932 2.205 5.301 5.301 0 0 1-3.09.735 8.654 8.654 0 0 1-2.208-.203c-.507-.125-.752-.376-.752-.735.002-.333.158-.648.425-.86a6.35 6.35 0 0 0 3.041.766 2.593 2.593 0 0 0 1.538-.344c.323-.25.495-.637.457-1.032a1.403 1.403 0 0 0-.654-1.283 9.25 9.25 0 0 0-2.109-.86 4.499 4.499 0 0 1-1.995-1.016c-.4-.43-.617-.989-.605-1.564a2.354 2.354 0 0 1 .981-1.986 4.433 4.433 0 0 1 2.78-.86zM142.056 66.412a5.75 5.75 0 0 1 1.236-4.086c1.805-1.615 4.596-1.773 6.597-.374.86 1.012 1.246 2.305 1.07 3.587a5.839 5.839 0 0 1-1.237 4.102c-1.818 1.658-4.664 1.818-6.68.374a4.569 4.569 0 0 1-.986-3.603zm1.837-.64a5.479 5.479 0 0 0 .685 3.214c.481.59 1.245.916 2.037.873.745.036 1.455-.295 1.871-.873a5.08 5.08 0 0 0 .618-2.87 5.39 5.39 0 0 0-.685-3.244c-.481-.577-1.239-.893-2.02-.842-.747-.043-1.46.29-1.871.873a5.068 5.068 0 0 0-.635 2.87zM158.786 70.006h1.07a1.33 1.33 0 0 1 0 .43.282.282 0 0 1-.085.237.302.302 0 0 1-.245.082h-3.422a1.551 1.551 0 0 1-.083-.462.264.264 0 0 1 0-.208.387.387 0 0 1 .264-.08h.674v-5.12-3.19h-.855a1.227 1.227 0 0 1-.1-.447.282.282 0 0 1 .083-.223.373.373 0 0 1 .263 0h3.193a6.237 6.237 0 0 1 3.29.606 2.069 2.069 0 0 1 .955 1.898c0 1.34-.823 2.233-2.468 2.728.457.132.86.4 1.151.766.365.498.674 1.033.922 1.595.181.465.443.896.773 1.276.228.162.51.236.79.207.099.351 0 .59 0 .702 0 .112-.444.192-.954.192a2.74 2.74 0 0 1-1.267-.224c-.264-.143-.527-.686-.807-1.595a5.628 5.628 0 0 0-.888-1.914 1.67 1.67 0 0 0-1.35-.558 5.99 5.99 0 0 0-.92 0c-.034 1.643-.017 2.743.016 3.302zm0-4.307h.625a3.612 3.612 0 0 0 1.958-.431 1.47 1.47 0 0 0 .675-1.308 1.774 1.774 0 0 0-.61-1.5 2.692 2.692 0 0 0-1.645-.478 4.446 4.446 0 0 0-.855 0v2.92l-.148.797zM171.532 70.189v-5-2.959l-2.96.11a.638.638 0 0 1-.439-.11.455.455 0 0 1-.13-.373 2.33 2.33 0 0 1 .212-.857c1.184.253 2.396.363 3.61.327h4.601a.758.758 0 0 1 .439.094.425.425 0 0 1 .13.373 1.677 1.677 0 0 1-.293.935 8.692 8.692 0 0 0-3.252-.499h-.244V70.267h1.041a.97.97 0 0 1 0 .42c.03.075.03.159 0 .234a.368.368 0 0 1-.26.078h-3.594a1.186 1.186 0 0 1-.097-.452.254.254 0 0 1 0-.202.351.351 0 0 1 .244-.078l.992-.078zM184.851 61.01a8.947 8.947 0 0 1 2.22.172c.356.06.617.356.62.704a1.09 1.09 0 0 1-.392.829 7.215 7.215 0 0 0-2.872-.673 1.987 1.987 0 0 0-1.338.36 1.515 1.515 0 0 0 0 2.033c.528.355 1.12.614 1.746.766.828.207 1.612.55 2.317 1.016a2.21 2.21 0 0 1 .832 1.83 2.438 2.438 0 0 1-.946 2.205c-.92.553-2 .81-3.084.735a8.62 8.62 0 0 1-2.203-.203c-.506-.125-.751-.376-.751-.735.002-.333.157-.648.424-.86a6.327 6.327 0 0 0 3.036.766 2.584 2.584 0 0 0 1.533-.344c.323-.25.495-.637.457-1.032a1.404 1.404 0 0 0-.652-1.282 9.221 9.221 0 0 0-2.105-.86 4.487 4.487 0 0 1-1.991-1.017 2.289 2.289 0 0 1-.604-1.564 2.356 2.356 0 0 1 .979-1.986 4.418 4.418 0 0 1 2.774-.86zM203.393 61.034c.291-.045.587-.045.878 0 0 0 .53 1.384 1.377 4.057.847 2.672 1.423 4.394 1.725 5.151h.606c.028.143.028.291 0 .435a.358.358 0 0 1 0 .241.32.32 0 0 1-.243.08h-2.83a1.342 1.342 0 0 1-.09-.466.233.233 0 0 1 .075-.21.306.306 0 0 1 .227-.08h.379c-.091-.419-.318-1.256-.666-2.479h-3.027c-.318 1.223-.514 2.044-.575 2.479h.636c.021.144.021.29 0 .435a.358.358 0 0 1 0 .241.334.334 0 0 1-.242.08h-2.513a1.342 1.342 0 0 1-.09-.466.29.29 0 0 1 0-.21.32.32 0 0 1 .242-.08h.393c.303-.87.802-2.463 1.513-4.83.712-2.366 1.12-3.637 1.287-3.992a.882.882 0 0 1 .938-.386zm-1.362 5.86h2.588a42.474 42.474 0 0 0-1.347-4.218 45.126 45.126 0 0 0-1.24 4.218zM213.265 61h2.225a129.872 129.872 0 0 0 2.116 3.805c.664 1.147 1.375 2.516 2.163 4.108V64.95v-3.185h-.726a1.29 1.29 0 0 1-.093-.446.292.292 0 0 1 .077-.222.33.33 0 0 1 .247 0h2.611c.06.129.091.27.093.414.03.082.03.172 0 .254a.33.33 0 0 1-.247 0h-.556v8.503a.815.815 0 0 1-.124.541.903.903 0 0 1-.572.111c-.328.046-.66.046-.988 0a27.42 27.42 0 0 1-1.7-2.674 52.55 52.55 0 0 1-2.626-4.777v6.783h.68c.06.135.092.281.093.43a.344.344 0 0 1 0 .238.348.348 0 0 1-.248.08h-2.595a1.291 1.291 0 0 1-.092-.462.226.226 0 0 1 .077-.207.318.318 0 0 1 .232-.08h.587v-5.11-3.185h-.665a1.29 1.29 0 0 1-.092-.445.295.295 0 0 1 0-.223.404.404 0 0 1 .123-.287zM227.366 61.035h2.783a5.337 5.337 0 0 1 3.817 1.046 4.7 4.7 0 0 1 1.003 3.491 6.51 6.51 0 0 1-1.08 4.055c-.923.99-2.22 1.486-3.527 1.351h-3.27a1.335 1.335 0 0 1-.091-.466.282.282 0 0 1 .076-.21.303.303 0 0 1 .228 0h.517v-5.18-3.218h-.73a1.334 1.334 0 0 1-.091-.45.3.3 0 0 1 .076-.226.318.318 0 0 1 .289-.193zm3.041 1.062a4.916 4.916 0 0 0-.897 0v5.39c-.06.698.001 1.401.182 2.075.122.177.533.258 1.247.258a2.206 2.206 0 0 0 1.856-.805c.496-.904.709-1.952.608-2.992a5.15 5.15 0 0 0-.715-3.122 2.702 2.702 0 0 0-2.372-.804h.091zM251.892 61.01a8.906 8.906 0 0 1 2.197.172c.353.06.612.357.614.706 0 .321-.149.626-.404.831a6.996 6.996 0 0 0-2.843-.674 1.929 1.929 0 0 0-1.372.392c-.27.26-.41.62-.388.988-.012.4.16.786.468 1.051.522.36 1.108.62 1.728.77a7.255 7.255 0 0 1 2.278 1.019c.56.449.866 1.13.824 1.835a2.45 2.45 0 0 1-1.002 2.15 5.222 5.222 0 0 1-3.069.737 8.588 8.588 0 0 1-2.18-.204c-.485-.125-.743-.376-.743-.737.008-.333.16-.646.42-.863a6.295 6.295 0 0 0 3.004.769 2.546 2.546 0 0 0 1.534-.346c.313-.255.481-.64.453-1.035a1.43 1.43 0 0 0-.662-1.286 9.188 9.188 0 0 0-2.068-.863 4.502 4.502 0 0 1-1.986-1.02 2.313 2.313 0 0 1-.582-1.569 2.405 2.405 0 0 1 .953-1.992 4.418 4.418 0 0 1 2.826-.832zM261.01 61.712h-.863a1.61 1.61 0 0 1-.082-.453.29.29 0 0 1 .082-.227.343.343 0 0 1 .244 0h2.945a6.981 6.981 0 0 1 3.71.664 2.501 2.501 0 0 1 .943 2.2 2.906 2.906 0 0 1-1.139 2.46 6.308 6.308 0 0 1-3.79.873h-.375v3.01h1.123c.05.14.077.287.08.436.03.078.03.165 0 .243a.36.36 0 0 1-.26.08h-3.53a1.272 1.272 0 0 1-.098-.469.274.274 0 0 1 .082-.21.376.376 0 0 1 .26-.08h.667v-5.194c.049-1.57.033-2.654 0-3.333zm2.277 4.546a4.087 4.087 0 0 0 2.261-.469 1.79 1.79 0 0 0 .651-1.618 2.161 2.161 0 0 0-.618-1.618 2.842 2.842 0 0 0-2.001-.566 4.32 4.32 0 0 0-.83 0V66.145l.537.113zM275.342 61.034c.29-.045.584-.045.874 0a40.094 40.094 0 0 1 1.372 4.057c.859 2.672 1.507 4.394 1.718 5.151h.603c.058.136.09.285.09.435a.353.353 0 0 1-.075.241.318.318 0 0 1-.241.08h-2.819a1.346 1.346 0 0 1-.09-.466.284.284 0 0 1 .075-.21.304.304 0 0 1 .226-.08h.377a38.109 38.109 0 0 0-.663-2.479h-3.015c-.317 1.223-.513 2.044-.573 2.479h.633c.022.144.022.29 0 .435a.36.36 0 0 1 0 .241.332.332 0 0 1-.24.08h-2.503a1.346 1.346 0 0 1-.09-.466.284.284 0 0 1 .075-.21.332.332 0 0 1 .24-.08h.393c.301-.87.799-2.463 1.507-4.83.709-2.366 1.116-3.637 1.281-3.992a.895.895 0 0 1 .845-.386zm-1.372 5.86h2.562a37.958 37.958 0 0 0-1.341-4.218 43.215 43.215 0 0 0-1.221 4.218z" fill="#4D4E4C"/>
  </g>
</svg>
